# xmcd
#
# Track frame offsets:
#        150
#        12685
#        26230
#        36397
#        43100
#        52610
#        63950
#        72287
#        77825
#        86852
#        96270
#        108187
#        114950
#        137712
#        150830
#        162805
#        173150
#        185550
#        198207
#        206187
#        215900
#        232227
#        241787
#        254800
#        270050
#        279200
#        290590
#        306317
#        320842
#
# Disc length: 4473 seconds
#
# Revision: 5
# Processed by: cddbd v1.5.1PL0 Copyright (c) Steve Scherf et al.
# Submitted via: ExactAudioCopy v0.95a5
#
DISCID=a911771d
DTITLE=Keith Jarrett - Suites for Keyboard
DYEAR=1995
DGENRE=Classical
TTITLE0=Suite HWV 452, G Minor - Allemande
TTITLE1=Suite HWV 452, G Minor - Courante
TTITLE2=Suite HWV 452, G Minor - Sarabande
TTITLE3=Suite HWV 452, G Minor - Gigue
TTITLE4=Suite HWV 447, D Minor - Allemande
TTITLE5=Suite HWV 447, D Minor - Courante
TTITLE6=Suite HWV 447, D Minor - Sarabande
TTITLE7=Suite HWV 447, D Minor - Gigue
TTITLE8=Suites II, No. 7 HWV 440, B-flat Major - Allemande
TTITLE9=Suites II, No. 7 HWV 440, B-flat Major - Courante
TTITLE10=Suites II, No. 7 HWV 440, B-flat Major - Sarabande
TTITLE11=Suites II, No. 7 HWV 440, B-flat Major - Gigue
TTITLE12=Suites I, No. 8 HWV 433, F minor - Prelude - Fuga
TTITLE13=Suites I, No. 8 HWV 433, F minor - Allemande
TTITLE14=Suites I, No. 8 HWV 433, F minor - Courante
TTITLE15=Suites I, No. 8 HWV 433, F minor - Gigue
TTITLE16=Suites I, No. 2 HWV 427, F Major - Adagio
TTITLE17=Suites I, No. 2 HWV 427, F Major - Allegro
TTITLE18=Suites I, No. 2 HWV 427, F Major - Adagio
TTITLE19=Suites I, No. 2 HWV 427, F Major - Allegro
TTITLE20=Suites I, No. 4 HWV 429, E Minor - Fuga
TTITLE21=Suites I, No. 4 HWV 429, E Minor - Allemande
TTITLE22=Suites I, No. 4 HWV 429, E Minor - Courante
TTITLE23=Suites I, No. 4 HWV 429, E Minor - Sarabande
TTITLE24=Suites I, No. 4 HWV 429, E Minor - Gigue
TTITLE25=Suites I, No. 1 HWV 426, A Major - Prelude
TTITLE26=Suites I, No. 1 HWV 426, A Major - Allemande
TTITLE27=Suites I, No. 1 HWV 426, A Major - Courante
TTITLE28=Suites I, No. 1 HWV 426, A Major - Gigue
EXTD=
EXTT0=
EXTT1=
EXTT2=
EXTT3=
EXTT4=
EXTT5=
EXTT6=
EXTT7=
EXTT8=
EXTT9=
EXTT10=
EXTT11=
EXTT12=
EXTT13=
EXTT14=
EXTT15=
EXTT16=
EXTT17=
EXTT18=
EXTT19=
EXTT20=
EXTT21=
EXTT22=
EXTT23=
EXTT24=
EXTT25=
EXTT26=
EXTT27=
EXTT28=
PLAYORDER=
